<svg
  t="1586920951461"
  class="icon"
  viewBox="0 0 1024 1024"
  version="1.1"
  xmlns="http://www.w3.org/2000/svg"
  p-id="1695"
  width="14"
  height="14"
>
  <path
    d="M298.81967787 905.96928747c-146.1377472 0-265.15714987-116.0062528-265.1571488-259.1308512 0-120.52597653 84.36818347-224.479632 204.89416106-251.59797654 28.62491947-6.02629867 57.24983893 12.05259733 64.78271254 40.6775168 6.02629867 28.62491947-12.05259733 57.24983893-40.67751787 64.7827136-70.8090112 16.57232213-120.52597653 76.83530987-120.52597653 146.13774614 0 82.8616096 70.8090112 150.65747093 156.6837696 150.657472s156.6837696-67.7958624 156.68377066-150.657472V307.8591264c0-143.12459733 119.01940267-259.13085013 265.1571488-259.13085013s265.15714987 116.0062528 265.15714987 259.13085013c0 117.51282773-79.84845973 219.95990827-195.85471253 250.09140267-28.62491947 7.5328736-58.75641387-10.54602347-64.78271254-39.17094294s10.54602347-58.75641387 39.17094187-64.78271253c67.7958624-16.57232213 114.49967787-76.83530987 114.49967893-144.63117227 0-82.8616096-70.8090112-150.65747093-156.68377066-150.65747093-87.38133333 0-156.6837696 67.7958624-156.6837696 150.65747093v338.97930987c-1.50657493 141.61802347-120.52597653 257.62427627-266.6637248 257.62427627z"
    p-id="1696"
    fill="#ee9ca7"
  ></path>
</svg>
