<svg
  t="1586921023448"
  class="icon"
  viewBox="0 0 1024 1024"
  version="1.1"
  xmlns="http://www.w3.org/2000/svg"
  p-id="1943"
  width="14"
  height="14"
>
  <path
    d="M665.944 163.205A250.655 250.655 0 0 0 719.808 0a272.586 272.586 0 0 0-160.055 74.81 250.537 250.537 0 0 0-53.746 163.285 272.98 272.98 0 0 0 160.016-74.811m128.241 379.723a219.353 219.353 0 0 1 118.634-192.933 265.932 265.932 0 0 0-196.87-105.876c-72.606 0-172.655 48.98-201.674 48.98-30.83 0-95.482-44.295-181.553-45.515a246.954 246.954 0 0 0-232.307 155.684 553.48 553.48 0 0 0 47.603 443.588c70.086 125.997 132.06 176.947 192.027 176.947s130.722-43.745 187.066-43.745 109.027 43.587 167.143 43.587 118.122-45.555 161.434-108.396a1030.575 1030.575 0 0 0 83.63-160.922s0-2.56 0.787-6.3a220.494 220.494 0 0 1-146.117-205.178m0 0z"
    p-id="1944"
    fill="#ee9ca7"
  ></path>
</svg>
