<?xml version="1.0" standalone="no"?>
<!DOCTYPE svg PUBLIC "-//W3C//DTD SVG 1.1//EN" "http://www.w3.org/Graphics/SVG/1.1/DTD/svg11.dtd">
<svg
  t="1586920985037"
  class="icon"
  viewBox="0 0 1024 1024"
  version="1.1"
  xmlns="http://www.w3.org/2000/svg"
  p-id="1819"
  width="14"
  height="14"
>
  <path
    d="M944.023 393.887c-1.55-33.691-29.335-60.205-63.066-60.17-33.731 0.033-61.463 26.6-62.945 60.298V657.98c0 34.84 28.234 63.073 63.072 63.073 34.832 0 63.071-28.233 63.071-63.073V393.887h-0.132z m-713.894-50.876l0.126 409.067c0 37.667 30.008 67.67 67.035 67.67h45.321v139.804c0 35.11 28.088 63.203 62.56 63.203 34.478 0 62.563-28.093 63.203-62.564V820.384h84.901V960.19c1.516 33.626 29.218 60.113 62.881 60.113s61.366-26.487 62.882-60.113V820.384h45.959c37.026 0 67.034-30 67.034-67.026V342.821l-563.69 0.125 1.788 0.065z m411.117-124.867a23.813 23.813 0 0 1-22.084-14.597 23.797 23.797 0 0 1 5.05-25.982 23.813 23.813 0 0 1 25.943-5.264 23.813 23.813 0 0 1 14.772 21.965c0 13.125-10.62 23.78-23.745 23.813m-258.544 0.001a23.758 23.758 0 0 1-21.936-14.811 23.747 23.747 0 0 1 5.395-25.91 23.743 23.743 0 0 1 26.021-4.83 23.732 23.732 0 0 1 14.328 22.249c0 13.408-10.848 24.257-24.256 24.257M650.311 95.194l44.045-80.438c2.554-4.469 0.638-9.577-3.192-12.13a9.321 9.321 0 0 0-12.126 3.831L634.35 87.532c-36.963-17.302-79.097-26.874-123.141-26.874-44.05 0-85.93 9.129-123.209 25.661L343.95 5.243c-2.348-4.206-7.656-5.717-11.872-3.383-4.279 1.916-5.747 7.662-3.445 11.493l44.049 79.798C286.177 137.834 227.77 222.74 227.77 320.411h567.896c0-97.671-58.349-182.577-144.717-227.26M142.226 330.69c-34.852 0.068-63.071 28.346-63.071 63.197v263.906c0 34.832 28.239 63.071 63.071 63.071 34.833 0 63.072-28.239 63.072-63.071V394.015c0-34.795-28.21-63.003-63.008-63.003"
    p-id="1820"
    fill="#ee9ca7"
  ></path>
</svg>
