<svg t="1588043317665" class="icon" viewBox="0 0 1027 1024" version="1.1" xmlns="http://www.w3.org/2000/svg" p-id="1447" width="32" height="32">
	<path d="M926.04967852 879.09971899l-366.57303359-366.57303359 366.5730336-366.5730336c12.64044946-12.64044946 12.64044946-33.70786523 0-46.3483147s-33.70786523-12.64044946-46.3483147 0l-366.5730336 366.5730336-366.5730336-366.5730336c-12.64044946-12.64044946-33.70786523-12.64044946-46.3483147 0-12.64044946 12.64044946-12.64044946 33.70786523 0 46.3483147l366.5730336 366.5730336-366.5730336 366.57303359c-8.42696631 8.42696631-12.64044946 21.06741578-8.4269663 33.70786524 4.21348315 12.64044946 16.85393261 21.06741578 29.49438208 21.06741577 8.42696631 0 16.85393261-4.21348315 21.06741576-8.42696631l366.5730336-366.5730336 366.57303361 366.5730336c4.21348315 4.21348315 12.64044946 8.42696631 21.06741578 8.42696631 12.64044946 0 25.28089893-8.42696631 29.49438207-21.06741577 8.42696631-12.64044946 8.42696631-25.28089893 0-33.70786524z" p-id="1448">
	</path>
</svg>
