<?xml version="1.0" encoding="UTF-8" standalone="no"?>
<!DOCTYPE svg PUBLIC "-//W3C//DTD SVG 1.1//EN" "http://www.w3.org/Graphics/SVG/1.1/DTD/svg11.dtd">
<svg
  t="1586920839951"
  class="icon"
  viewBox="0 0 1024 1024"
  version="1.1"
  xmlns="http://www.w3.org/2000/svg"
  p-id="1571"
  width="14"
  height="14"
>
  <path
    d="M914.20444445 126.52088889h-804.4088889c-36.97777778 0-67.01511111 27.53422222-67.0151111 61.66755556V681.52888889c0 34.01955555 30.03733333 61.66755555 67.0151111 61.66755556h335.18933334v92.50133333H277.39022222c-18.54577778 0-33.56444445 13.76711111-33.56444444 30.83377777v30.83377778h536.34844444v-30.83377778c0-17.06666667-15.01866667-30.83377778-33.56444444-30.83377777H579.01511111v-92.50133333h335.18933334c36.97777778 0 67.01511111-27.648 67.0151111-61.66755556V188.18844445c0-34.01955555-30.03733333-61.66755555-67.0151111-61.66755556z m-435.7688889 555.12177778c0-17.06666667 15.01866667-30.83377778 33.56444445-30.83377778 18.432 0 33.56444445 13.76711111 33.56444445 30.83377778 0 17.06666667-15.01866667 30.83377778-33.56444445 30.83377778s-33.56444445-13.88088889-33.56444445-30.83377778z m-368.64-61.78133334V188.18844445h804.4088889v431.67288888h-804.4088889z m0 0"
    p-id="1572"
    fill="#ee9ca7"
  ></path>
</svg>
