<?xml version="1.0" encoding="UTF-8" standalone="no"?>
<!DOCTYPE svg PUBLIC "-//W3C//DTD SVG 1.1//EN" "http://www.w3.org/Graphics/SVG/1.1/DTD/svg11.dtd">
<svg
  t="1586921107191"
  class="icon"
  viewBox="0 0 1024 1024"
  version="1.1"
  xmlns="http://www.w3.org/2000/svg"
  p-id="2067"
  width="14"
  height="14"
>
  <path
    d="M814.781 138.818c0-65.173-51.236-118.261-114.176-118.261h-377.21c-62.996 0-114.176 53.088-114.176 118.261v746.42c0 65.173 51.18 118.204 114.176 118.204h377.211c62.939 0 114.176-53.031 114.176-118.204v-746.42zM513.252 964.677c-20.797 0-37.651-17.425-37.651-38.875 0-21.509 16.854-38.877 37.651-38.877 20.746 0 37.514 17.368 37.514 38.877 0 21.45-16.768 38.875-37.514 38.875m242.674-116.52H268.103V147.829h487.823v700.328z"
    p-id="2068"
    fill="#ee9ca7"
  ></path>
</svg>
